# xmcd
#
# Track frame offsets:
#	150
#	17997
#	35152
#	48481
#	65624
#	80769
#	93344
#	108203
#	126718
#	141438
#	158532
#	174972
#	190521
#	210019
#	229907
#	245121
#	261943
#	274294
#	290901
#
# Disc length: 4085 seconds
#
# Revision: 1
# Processed by: cddbd v1.4PL0 Copyright (c) Steve Scherf et al.
# Submitted via: EasyCDDAExtractor 6.2.0.3
#
DISCID=200ff313
DTITLE=Axé Verão 2004 - Axé verão 2004
DYEAR=2003
DGENRE=Axé
TTITLE0=Brasileiro
TTITLE1=Arrastão
TTITLE2=Destrambelhada
TTITLE3=Vira, Vira
TTITLE4=Cai Fora
TTITLE5=Catuca
TTITLE6=Dá, Dá, Dá
TTITLE7=Timbaleiro
TTITLE8=Gata Brasileira
TTITLE9=Olodum Prá Bala,çar
TTITLE10=Pega Essa Levada
TTITLE11=Quebradeira
TTITLE12=Bala,cê
TTITLE13=Swingão
TTITLE14=Swingueira
TTITLE15=Toma-Toma
TTITLE16=Siliconada
TTITLE17=Vigê Maria
TTITLE18=Detona
EXTD=
EXTT0=
EXTT1=
EXTT2=
EXTT3=
EXTT4=
EXTT5=
EXTT6=
EXTT7=
EXTT8=
EXTT9=
EXTT10=
EXTT11=
EXTT12=
EXTT13=
EXTT14=
EXTT15=
EXTT16=
EXTT17=
EXTT18=
PLAYORDER=
